snake_rectilinear_motion_2_ik.mot		
version=1		
nRows=22		
nColumns=3		
inDegrees=yes		
		
Units are S.I. units (second, meters, Newtons, ...)
Angles are in degrees.
		
endheader		
time	rib1_tx	rib2_tx
0.000	0.001	0.000
0.010	0.002	0.000
0.020	0.003	0.000
0.030	0.004	0.000
0.040	0.005	0.000
0.050	0.006	0.000
0.060	0.007	0.000
0.070	0.008	0.000
0.080	0.009	0.000
0.090	0.010	0.000
0.100	0.011	0.000
0.110	0.000	0.001
0.120	0.000	0.002
0.130	0.000	0.003
0.140	0.000	0.004
0.150	0.000	0.005
0.160	0.000	0.006
0.170	0.000	0.007
0.180	0.000	0.008
0.190	0.000	0.009
0.200	0.000	0.010
0.210	0.000	0.011
